<?xml version="1.0" encoding="UTF-8"?>
<svg width="150px" height="134px" viewBox="0 0 150 134" version="1.1" xmlns="http://www.w3.org/2000/svg" xmlns:xlink="http://www.w3.org/1999/xlink">
    <title>Group 6</title>
    <defs>
        <polygon id="path-1" points="0 0 50 0 50 134 0 134"></polygon>
    </defs>
    <g id="Symbols" stroke="none" stroke-width="1" fill="none" fill-rule="evenodd">
        <g id="Group-6">
            <path d="M0.948543114,80 C21.6484135,78.3809485 42.3621227,77.3413097 63.2094067,75.6691552 C72.4086137,74.9310234 81.5945835,73.9663189 90.767918,72.9685725 C98.0591725,72.1755676 105.325156,71.2521654 112.559852,70.0785891 C123.838493,68.2494857 133.914359,67.0098256 145.192999,65.1807222 C148.51913,64.6414317 152.520355,55.2970734 147.925866,56.0422855 C129.670052,59.0030729 111.411831,63.1751988 93.0657642,65.5247116 C85.2967695,66.5200979 77.4363181,67.6464716 69.6414508,68.4105648 C55.8958897,69.7570209 42.1509303,71.6941004 28.4053691,73.0411466 C19.7633252,73.8878444 11.1206795,75.3251657 2.47803387,76.1718636 C-0.869757858,76.4999221 -0.22775682,79.8548518 0.948543114,80" id="Fill-1" fill="#B23929"></path>
            <g id="Group-5" transform="translate(28.000000, 0.000000)">
                <mask id="mask-2" fill="white">
                    <use xlink:href="#path-1"></use>
                </mask>
                <g id="Clip-4"></g>
                <path d="M44.3662126,4.51617381 C44.297572,2.79545531 43.6147783,-0.263934042 41.0540011,0.0182397253 C39.0092329,0.243256759 36.2238683,2.13664876 35.8108203,4.01439786 C34.1321354,11.6469275 32.3450706,26.2411473 30.1997499,37.5082436 C28.3241747,26.3903565 26.5136276,18.0352454 24.1768356,6.36143382 C23.8565126,4.76044364 22.5770272,2.11739596 18.8770564,2.64083131 C17.1050443,2.89111763 14.9765827,4.32003597 14.5701579,7.16463633 C12.8216281,19.3979822 10.8750039,31.5073882 9.07288634,43.7329126 C6.20623686,63.1740234 3.88509975,82.6524364 1.69401858,102.409413 C1.19246029,106.93382 0.510870867,112.525553 0.0496539999,117.083653 C-0.00814863625,117.652212 -0.0858209286,118.549873 0.273639215,118.632299 C1.14609775,118.832649 2.83140586,118.388631 3.45880531,117.632959 C3.59247391,117.471717 3.68580108,117.282799 3.74902271,117.083653 L4.29152454,114.976073 C6.64637985,102.739117 8.64358135,89.407159 10.9737501,77.3055745 C15.0729204,56.0167971 17.8396195,44.742481 20.9952822,26.8277559 C22.2567043,36.7369285 24.2912366,45.5186093 24.6994678,48.2470913 C24.9409142,49.8613177 25.9458371,51.2180381 27.2469985,51.6590474 C30.1997499,52.6607944 31.423239,50.7192704 32.5395524,49.3601434 C33.8967101,47.7068097 36.3069596,39.8450515 39.4782772,27.1478336 C39.5282524,34.801421 40.0388423,40.5134844 40.074969,47.1526902 C40.0996555,51.6626573 40.8703573,111.811395 41.042561,116.71063 C41.2292154,122.038239 41.4670491,127.364043 41.6795942,132.690449 C41.7578686,134.656039 44.4179941,134.047771 46.1388268,133.195835 C47.9692436,132.290352 50.0784377,130.503452 49.9977548,128.477095" id="Fill-3" fill="#B23929" mask="url(#mask-2)"></path>
            </g>
        </g>
    </g>
</svg>