<?xml version="1.0" encoding="UTF-8"?>
<svg width="70px" height="63px" viewBox="0 0 70 63" version="1.1" xmlns="http://www.w3.org/2000/svg" xmlns:xlink="http://www.w3.org/1999/xlink">
    <title>Group 6</title>
    <defs>
        <polygon id="path-1" points="0 0 23 0 23 63 0 63"></polygon>
    </defs>
    <g id="Entwurf" stroke="none" stroke-width="1" fill="none" fill-rule="evenodd">
        <g id="Tablet-Copy-6" transform="translate(-48.000000, -29.000000)">
            <g id="Group-6" transform="translate(48.000000, 29.000000)">
                <path d="M0.489982341,38 C10.1433489,37.2579347 19.8031693,36.7814336 29.5252821,36.0150294 C33.8153243,35.6767191 38.0991934,35.2345628 42.3771699,34.7772624 C45.7774401,34.4138018 49.1659253,33.9905758 52.5398194,33.4526867 C57.7996037,32.6143476 62.4984752,32.0461701 67.7582594,31.207831 C69.3093977,30.9606562 71.1753655,26.6778253 69.0327294,27.0193809 C60.5191464,28.3764084 52.004441,30.2886328 43.4487685,31.3654928 C39.8257046,31.8217115 36.1599899,32.3379661 32.5248603,32.6881755 C26.1146298,33.3053012 19.7046799,34.1931294 13.2944493,34.8105255 C9.26423964,35.1985954 5.23374933,35.8573676 1.20325903,36.2454375 C-0.35798074,36.3957976 -0.174189933,37.9310399 0.489982341,38" id="Fill-1" fill="#FFFFFF"></path>
                <g id="Group-5" transform="translate(13.000000, 0.000000)">
                    <mask id="mask-2" fill="white">
                        <use xlink:href="#path-1"></use>
                    </mask>
                    <g id="Clip-4"></g>
                    <path d="M20.6621872,2.11607772 C20.6302281,1.31492077 20.3297014,-0.122959865 19.1376866,0.00841866917 C18.1856447,0.113185347 16.6182519,1.61297356 16.3931371,2.47967972 C15.0009581,7.83482565 14.540356,12.930576 13.5412166,18.1761932 C12.6682312,12.9997668 12.3447164,9.0074281 11.2567085,3.57216646 C11.1075665,2.82703448 9.58671043,1.65863391 8.78913706,1.83987466 C7.97670555,2.02447691 6.91757297,3.14441588 6.78384977,3.94613308 C5.83713438,9.62146167 5.17076113,15.2967903 4.22432608,20.9721189 C2.70543239,30.0786962 1.80889825,39.0928324 0.788733219,48.2915708 C0.555208221,50.3981093 0.237860924,53.0018694 0.0231188487,55.1238148 C-0.00379399623,55.3885328 -0.0399581316,55.806479 0.127406123,55.8448561 C0.533621876,55.9381377 1.31829951,55.7316857 1.61041602,55.3795688 C1.67265197,55.3044953 1.716105,55.2165361 1.74554092,55.1238148 L1.99812919,54.1425376 C3.09454728,48.4450792 4.16545423,42.2630048 5.1093662,36.6033632 C6.53939143,28.0295832 8.30610756,21.4421683 9.77566103,13.101172 C10.3626975,17.7148276 10.9502946,22.1500437 11.1403665,23.4204097 C11.2527837,24.1719845 11.3542676,24.5311045 11.8681347,24.911514 C12.4142412,25.3157341 14.1004991,25.2955651 14.6202535,24.6627632 C15.252425,23.8929802 16.792905,17.6901766 18.2691867,11.7784227 C18.3944996,15.3528152 18.5175698,18.9221655 18.6588623,22.5643483 C18.7404418,24.6627632 19.0291942,52.6690812 19.1093721,54.9501375 C19.1962781,57.4306426 19.3070133,59.9103074 19.405974,62.3902523 C19.4424185,63.3054201 20.6809701,63.0222139 21.4821879,62.6255572 C22.334428,62.2039693 23.0361244,61.3719987 22.9985585,60.4285383" id="Fill-3" fill="#FFFFFF" mask="url(#mask-2)"></path>
                </g>
            </g>
        </g>
    </g>
</svg>